<?xml version="1.0" encoding="UTF-8" standalone="no"?>
<!-- Uploaded to: SVG Repo, www.svgrepo.com, Generator: SVG Repo Mixer Tools -->

<svg
   width="800px"
   height="800px"
   viewBox="-21.99 0 312.361 312.361"
   version="1.1"
   id="svg100"
   sodipodi:docname="cosmicmoney_icon.svg"
   inkscape:version="1.2.2 (b0a8486541, 2022-12-01)"
   xmlns:inkscape="http://www.inkscape.org/namespaces/inkscape"
   xmlns:sodipodi="http://sodipodi.sourceforge.net/DTD/sodipodi-0.dtd"
   xmlns="http://www.w3.org/2000/svg"
   xmlns:svg="http://www.w3.org/2000/svg">
  <sodipodi:namedview
     id="namedview102"
     pagecolor="#ffffff"
     bordercolor="#666666"
     borderopacity="1.0"
     inkscape:showpageshadow="2"
     inkscape:pageopacity="0.0"
     inkscape:pagecheckerboard="0"
     inkscape:deskcolor="#d1d1d1"
     showgrid="false"
     inkscape:zoom="0.51445126"
     inkscape:cx="62.2022"
     inkscape:cy="593.83663"
     inkscape:window-width="1920"
     inkscape:window-height="1008"
     inkscape:window-x="0"
     inkscape:window-y="0"
     inkscape:window-maximized="1"
     inkscape:current-layer="layer1" />
  <defs
     id="defs4">
    <style
       id="style2">.a{fill:#ffffff;}.b{fill:#211715;}.c{fill:#6dbf6b;}.d{fill:#bd957a;}.e{fill:#ffda71;}</style>
  </defs>
  <g
     inkscape:groupmode="layer"
     id="layer1"
     inkscape:label="bg">
    <rect
       style="fill:#bd82f5;fill-opacity:1;stroke-width:2.3427075;stroke-linecap:round;stroke-linejoin:round;stroke-dasharray:53.6631, 2.23597;stroke:none;stroke-opacity:1"
       id="rect433"
       width="308.45648"
       height="308.45648"
       x="-20.037745"
       y="1.9522562"
       ry="61.290649" />
  </g>
  <g
     id="g378"
     transform="matrix(0.58195838,0,0,0.58195838,56.099617,65.284509)">
    <path
       class="a"
       d="m 125.889,25.5 a 0.15,0.15 0 0 0 0.293,0 c 0.576,-2.43 1.772,-6.434 3.6,-8.159 a 14.7,14.7 0 0 1 7.373,-3.314 0.152,0.152 0 0 0 -0.008,-0.3 c -3.254,-0.47 -5.95,-1.446 -7.992,-4 a 13.525,13.525 0 0 1 -2.79,-7.579 0.15047923,0.15047923 0 0 0 -0.3,-0.024 24.412,24.412 0 0 1 -3.227,7.77 c -1.856,2.357 -4.3,3.079 -8.149,3.812 a 0.153,0.153 0 0 0 0.012,0.3 12.82,12.82 0 0 1 7.969,3.621 c 1.893,1.725 2.809,6.205 3.219,7.873 z"
       id="path6" />
    <path
       class="a"
       d="m 254.215,188.945 a 0.161,0.161 0 0 0 0.314,0 c 0.616,-2.6 1.894,-6.879 3.848,-8.724 a 15.718,15.718 0 0 1 7.884,-3.544 0.162,0.162 0 0 0 -0.009,-0.321 c -3.479,-0.5 -6.361,-1.547 -8.545,-4.273 a 14.456,14.456 0 0 1 -2.983,-8.1 0.161,0.161 0 0 0 -0.318,-0.025 c -0.628,2.714 -2.129,6.629 -3.451,8.309 -1.984,2.52 -4.6,3.291 -8.714,4.076 a 0.163,0.163 0 0 0 0.014,0.323 13.715,13.715 0 0 1 8.521,3.873 c 2.024,1.835 3.001,6.626 3.439,8.406 z"
       id="path8" />
    <path
       class="a"
       d="m 11.5,139.713 a 0.127,0.127 0 0 0 0.247,0 c 0.484,-2.042 1.488,-5.407 3.024,-6.858 a 12.353,12.353 0 0 1 6.2,-2.785 0.128,0.128 0 0 0 -0.007,-0.253 c -2.735,-0.4 -5,-1.216 -6.718,-3.359 a 11.376,11.376 0 0 1 -2.345,-6.371 0.126,0.126 0 0 0 -0.249,-0.02 20.543,20.543 0 0 1 -2.716,6.533 c -1.56,1.981 -3.614,2.587 -6.85,3.2 a 0.128,0.128 0 0 0 0.011,0.254 10.775,10.775 0 0 1 6.703,3.046 c 1.585,1.447 2.354,5.213 2.7,6.613 z"
       id="path10" />
    <path
       class="b"
       d="m 252.8,190.36 0.158,0.124 a 2.084,2.084 0 0 0 2.828,0 3.73,3.73 0 0 0 0.964,-2.168 c 0.207,-0.773 0.436,-1.541 0.694,-2.3 a 13.036,13.036 0 0 1 1.889,-3.9 9.127,9.127 0 0 1 3.459,-2.369 15.076,15.076 0 0 1 2.508,-0.848 c 0.894,-0.224 1.87,-0.214 2.51,-0.974 a 2.062,2.062 0 0 0 0,-2.829 3.658,3.658 0 0 0 -2.349,-0.9 17,17 0 0 1 -2.293,-0.613 8.711,8.711 0 0 1 -3.423,-2.206 10.312,10.312 0 0 1 -2.353,-4.054 c -0.454,-1.468 -0.3,-3.815 -1.4,-4.914 a 2.018,2.018 0 0 0 -2.424,-0.313 c -1.457,1.09 -1.646,3.5 -2.273,5.15 a 14.319,14.319 0 0 1 -1.958,3.851 7.193,7.193 0 0 1 -3.224,2.215 20.365,20.365 0 0 1 -2.4,0.679 c -1.01,0.233 -2.322,0.231 -3.018,1.1 a 2.056,2.056 0 0 0 0,2.829 c 0.754,0.78 1.676,0.705 2.661,0.9 a 12.014,12.014 0 0 1 2.358,0.692 11.15,11.15 0 0 1 3.928,2.717 c 1.648,1.9 2.073,4.88 2.649,7.25 0.607,2.5 4.465,1.442 3.857,-1.063 -0.734,-3.02 -1.424,-6.387 -3.5,-8.811 a 15.718,15.718 0 0 0 -10.389,-4.943 l 1.414,0.586 -0.149,-0.155 v 2.829 l 0.135,-0.169 -0.882,0.514 c 3.388,-0.654 6.9,-1.524 9.282,-4.214 2.274,-2.571 3.493,-6.286 4.28,-9.567 l -0.919,1.195 0.167,-0.125 -2.424,-0.313 0.15,0.15 -0.585,-1.414 c 0.418,3.748 1.446,7.266 4.065,10.1 a 14.813,14.813 0 0 0 8.932,4.208 l -0.883,-0.514 0.144,0.161 V 175.1 l -0.135,0.161 0.883,-0.514 c -3.313,0.53 -7.178,2.028 -9.352,4.7 -2.045,2.518 -3.029,5.854 -3.777,8.961 l 0.514,-0.883 -0.156,0.126 h 2.828 l -0.158,-0.125 a 2.062,2.062 0 0 0 -2.828,0 2.014,2.014 0 0 0 -0.005,2.834 z"
       id="path12" />
    <path
       class="b"
       d="m 10.084,141.127 0.124,0.1 a 2.085,2.085 0 0 0 2.829,0 c 0.906,-0.728 1.048,-2.631 1.413,-3.7 a 9.708,9.708 0 0 1 1.442,-2.961 7.394,7.394 0 0 1 2.565,-1.709 11.615,11.615 0 0 1 1.869,-0.624 c 0.783,-0.2 1.6,-0.205 2.162,-0.876 a 2.058,2.058 0 0 0 0,-2.828 c -0.865,-0.964 -2.658,-0.873 -3.837,-1.3 a 6.473,6.473 0 0 1 -2.5,-1.625 7.616,7.616 0 0 1 -1.74,-3 c -0.387,-1.251 -0.271,-3.108 -1.215,-4.051 a 2.017,2.017 0 0 0 -2.423,-0.313 3.449,3.449 0 0 0 -1.286,2.2 q -0.3,1.065 -0.7,2.1 a 12.047,12.047 0 0 1 -1.429,2.838 5.128,5.128 0 0 1 -2.345,1.632 16.47,16.47 0 0 1 -1.887,0.533 c -0.878,0.2 -1.953,0.217 -2.561,0.972 a 2.056,2.056 0 0 0 0,2.829 c 0.933,0.965 2.8,0.8 4.032,1.317 a 8.619,8.619 0 0 1 3,2.068 8.354,8.354 0 0 1 1.203,2.591 c 0.3,0.963 0.529,1.945 0.767,2.925 0.607,2.5 4.465,1.441 3.857,-1.064 -0.595,-2.449 -1.169,-5.155 -2.861,-7.114 A 12.819,12.819 0 0 0 2.1,128.056 l 1.414,0.586 -0.117,-0.122 v 2.829 l 0.106,-0.133 -0.882,0.514 c 2.738,-0.528 5.561,-1.254 7.485,-3.423 1.842,-2.075 2.838,-5.054 3.474,-7.709 l -0.919,1.2 0.132,-0.1 -2.424,-0.313 0.118,0.118 -0.587,-1.417 a 13.871,13.871 0 0 0 3.322,8.24 12,12 0 0 0 7.209,3.419 l -0.882,-0.515 0.113,0.126 v -2.828 l -0.106,0.126 0.882,-0.514 c -2.676,0.429 -5.779,1.657 -7.539,3.808 a 17.911,17.911 0 0 0 -3.08,7.233 l 0.514,-0.883 -0.123,0.1 h 2.829 l -0.124,-0.1 a 2.064,2.064 0 0 0 -2.829,0 2.014,2.014 0 0 0 -0.002,2.829 z"
       id="path14" />
    <path
       class="a"
       d="m 168.991,73.7 1.56,-6.81 c -0.807,0.583 -1.456,1.049 -1.456,1.049 a 56.906,56.906 0 0 1 -7.486,6.7 l -0.749,1.931 a 101.229,101.229 0 0 1 -11.592,19.652 c 0,0 -3.665,0.135 -7.736,0.275 0.035,4.2 0.02,9.489 -0.034,15.45 l -8.905,-1.461 A 103.526,103.526 0 0 1 111.012,101.6 144.439,144.439 0 0 1 96.2,91.68 c -3.94,0.75 -6.381,1.274 -11.054,2.165 17.667,14.132 35.158,26.486 56.1,37.141 -0.414,24.574 -1.153,52.358 -1.612,63.729 -0.006,0.154 -0.012,0.3 -0.018,0.452 h 19.275 c -1.713,-11.563 -4.53,-64.074 -5.42,-77.893 l 0.1,-0.206 C 160.6,102.614 165.136,88.637 168.991,73.7 Z"
       id="path16" />
    <path
       class="a"
       d="m 150.348,309.928 c 6.167,0 12.19,0.008 14.661,0.023 1.7,0.011 3.427,0.022 5.151,-0.01 5.949,-0.1 11.909,-0.575 17.028,-2.7 9.983,-4.13 13.793,-13.07 16.433,-21.19 A 323.26,323.26 0 0 0 219.2,199.98 c 0.021,-0.479 0.042,-0.979 0.063,-1.468 -0.6,-3.491 -1.777,-6.29 -4.853,-8.514 -2.9,-2.086 -6.428,-3.076 -9.9,-3.938 -18.288,-4.579 -37.518,-5.844 -56.256,-6.048 -6.482,0.115 -12.9,0.32 -19.254,0.78 a 199.583,199.583 0 0 0 -34.376,5.268 c -3.47,0.862 -6.993,1.852 -9.9,3.938 -3.1,2.235 -4.268,5.065 -4.853,8.578 a 322.117,322.117 0 0 0 12.164,76.031 c 1.1,3.831 2.246,7.631 3.481,11.441 2.628,8.12 6.438,17.06 16.411,21.19 6.6,2.735 14.591,2.756 22.19,2.713 2.683,-0.016 9.54,-0.024 16.231,-0.023 z"
       id="path18" />
    <path
       class="c"
       d="m 172.83,76.707 a 68.1,68.1 0 0 1 -2.12,-9.935 c -0.881,0.636 -1.615,1.163 -1.615,1.163 -5.784,5.933 -8.106,7.241 -13.793,10.827 -2.367,1.493 -5.5,2.285 -7.681,1.454 -2.274,-0.866 -4.165,-2.975 -5.519,-5.171 a 20.17,20.17 0 0 1 -2.791,-7.583 11.115,11.115 0 0 1 2.411,-8.873 c 2.254,-2.474 5.534,-3.343 8.795,-3.594 a 52.076,52.076 0 0 1 7.147,0.363 l 5.577,-8.041 a 68.087,68.087 0 0 1 8.958,-8.674 c 2.86,-2.18 6.008,-3.854 9,-3.427 2.86,0.408 5.05,2.939 5.933,5.69 0.883,2.751 0.714,5.715 0.535,8.6 -0.176,2.84 -1.483,8.3 -3.02,10.7 l -0.749,1.456 c 0.959,0.687 1.889,1.427 2.794,2.2 a 63.294,63.294 0 0 1 5.234,4.6 c 1.965,2.068 3.582,4.548 3.595,7.468 a 9.7,9.7 0 0 1 -3.625,7.156 17.392,17.392 0 0 1 -6.426,2.911 c -2.161,0.631 -4.433,1.259 -6.411,0.491 a 9.419,9.419 0 0 1 -4.646,-5.175 c -0.58,-1.464 -1.107,-3.006 -1.58,-4.6"
       id="path20" />
    <path
       class="b"
       d="m 164.938,49.014 a 62.381,62.381 0 0 1 8.021,-7.927 c 2.362,-1.95 6.768,-5.153 9.854,-2.577 3.186,2.659 2.754,7.684 2.422,11.376 a 22.262,22.262 0 0 1 -2.663,9.1 c -1.627,2.636 2.524,5.05 4.144,2.423 a 25.692,25.692 0 0 0 3,-9.137 c 0.641,-3.844 0.944,-8.255 -0.274,-12.007 -1.218,-3.752 -4.192,-7 -8.248,-7.452 -4.222,-0.475 -8.128,2.055 -11.268,4.581 a 60.84,60.84 0 0 0 -8.384,8.223 2.465,2.465 0 0 0 0,3.394 2.42,2.42 0 0 0 3.394,0 z"
       id="path22" />
    <path
       class="b"
       d="m 151.34,97.43 a 112.268,112.268 0 0 0 11.593,-19.652 2.472,2.472 0 0 0 -0.861,-3.283 2.419,2.419 0 0 0 -3.284,0.861 112.136,112.136 0 0 1 -11.588,19.651 2.419,2.419 0 0 0 0.861,3.284 2.456,2.456 0 0 0 3.284,-0.861 z"
       id="path24" />
    <path
       class="b"
       d="m 95.51,209.385 c 7.791,2.567 16.107,3.6 24.222,4.576 q 7.209,0.87 14.462,1.268 a 236.128,236.128 0 0 0 42.27,-1.518 c 8.746,-1.106 17.96,-1.945 26.223,-5.193 a 2.473,2.473 0 0 0 1.676,-2.952 2.417,2.417 0 0 0 -2.952,-1.676 c -7.243,2.847 -15.177,3.71 -22.836,4.746 q -11.4,1.541 -22.9,1.961 a 227.034,227.034 0 0 1 -33.042,-1.1 c -8.65,-0.936 -17.553,-2 -25.845,-4.736 -2.941,-0.969 -4.2,3.664 -1.276,4.628 z"
       id="path26" />
    <path
       class="b"
       d="m 157.463,182.606 c 16.02,0.529 32.117,2.021 47.664,6.086 3.253,0.85 6.781,1.9 9.19,4.381 a 8.546,8.546 0 0 1 1.949,3.251 12.02,12.02 0 0 1 0.548,2.088 12.734,12.734 0 0 1 -0.043,2.282 q -0.529,12.011 -1.975,23.959 a 320.889,320.889 0 0 1 -9.442,47.284 q -1.656,5.958 -3.528,11.851 a 72.139,72.139 0 0 1 -2.856,7.885 c -2.35,5.2 -5.743,9.784 -10.874,12.5 -6.624,3.5 -14.627,3.422 -21.923,3.387 q -6.148,-0.029 -12.3,-0.029 -7.445,0 -14.89,0.007 c -5.367,0.01 -10.759,0.186 -16.111,-0.28 -6.523,-0.568 -12.87,-2.492 -17.466,-7.365 -3.724,-3.948 -5.813,-9.1 -7.475,-14.18 A 324.952,324.952 0 0 1 86.353,238.529 q -2,-11.9 -3.063,-23.921 -0.541,-6.09 -0.848,-12.2 a 16.423,16.423 0 0 1 0.152,-5.117 9.932,9.932 0 0 1 1.634,-3.552 c 1.962,-2.573 5.337,-3.784 8.33,-4.647 3.791,-1.093 7.674,-1.924 11.544,-2.681 a 205.949,205.949 0 0 1 24.179,-3.164 c 3.939,-0.3 7.883,-0.49 11.831,-0.628 3.08,-0.108 3.094,-4.908 0,-4.8 -8.511,0.3 -17.005,0.908 -25.448,2.036 -4.285,0.573 -8.553,1.264 -12.792,2.116 A 104.177,104.177 0 0 0 89.845,184.9 c -3.415,1.125 -6.888,2.787 -9.178,5.653 a 14.538,14.538 0 0 0 -3.121,9.7 q 0.549,12.7 2.118,25.338 a 327.946,327.946 0 0 0 10.2,50.115 c 3.567,12.44 7.142,27.428 20.136,33.294 7.195,3.247 15.249,3.392 23.009,3.362 q 6.5,-0.026 13,-0.029 7.659,0 15.32,0.01 c 6.335,0.015 12.692,0.194 18.975,-0.772 6.975,-1.073 13.538,-4.145 18.049,-9.693 3.949,-4.856 6.151,-10.676 8.03,-16.577 a 329.224,329.224 0 0 0 11.661,-49.373 q 1.95,-12.562 2.93,-25.252 0.243,-3.2 0.421,-6.412 c 0.1,-1.89 0.35,-3.856 0.272,-5.747 a 14.272,14.272 0 0 0 -4.216,-9.093 c -2.788,-2.692 -6.538,-4.123 -10.213,-5.133 -4,-1.1 -8.065,-1.966 -12.139,-2.722 a 226.151,226.151 0 0 0 -25.176,-3.124 c -4.148,-0.3 -8.3,-0.5 -12.458,-0.634 -3.089,-0.1 -3.086,4.7 0,4.8 z"
       id="path28" />
    <path
       class="b"
       d="m 142.013,195.167 c 0.547,-13.307 0.842,-26.626 1.145,-39.94 0.371,-16.225 0.7,-32.454 0.779,-48.683 0.03,-5.707 0.1,-11.433 -0.162,-17.137 -0.142,-3.075 -4.943,-3.093 -4.8,0 0.571,12.373 0.131,24.837 -0.061,37.213 q -0.382,24.725 -1.081,49.444 c -0.178,6.368 -0.358,12.737 -0.62,19.1 -0.127,3.088 4.673,3.083 4.8,0 z"
       id="path30" />
    <path
       class="b"
       d="m 161.2,194.533 c -0.021,-0.147 -0.04,-0.294 -0.063,-0.44 -0.046,-0.3 0.078,0.627 0.006,0.038 -0.05,-0.405 -0.1,-0.81 -0.148,-1.215 q -0.158,-1.368 -0.29,-2.737 c -0.222,-2.244 -0.414,-4.492 -0.6,-6.74 -0.48,-5.905 -0.89,-11.816 -1.282,-17.728 -0.834,-12.556 -1.569,-25.119 -2.31,-37.681 -0.247,-4.173 -0.475,-8.349 -0.768,-12.52 a 2.458,2.458 0 0 0 -2.4,-2.4 2.419,2.419 0 0 0 -2.4,2.4 c 0.659,9.364 1.129,18.742 1.692,28.112 0.766,12.731 1.534,25.465 2.537,38.18 0.368,4.674 0.713,9.367 1.4,14.007 a 2.415,2.415 0 0 0 2.952,1.676 2.46,2.46 0 0 0 1.676,-2.952 z"
       id="path32" />
    <path
       class="b"
       d="m 184.97,153.1 a 112.163,112.163 0 0 1 -27.717,14.716 2.461,2.461 0 0 0 -1.676,2.952 2.421,2.421 0 0 0 2.952,1.676 114.294,114.294 0 0 0 15.134,-6.547 121.349,121.349 0 0 0 13.729,-8.652 2.468,2.468 0 0 0 0.861,-3.284 2.419,2.419 0 0 0 -3.283,-0.861 z"
       id="path34" />
    <path
       class="b"
       d="m 128.022,164.968 c -14.048,-3.585 -26.676,-11.379 -38.047,-20.19 a 2.481,2.481 0 0 0 -3.394,0 2.417,2.417 0 0 0 0,3.4 c 12.038,9.322 25.274,17.622 40.165,21.422 3,0.764 4.272,-3.864 1.276,-4.629 z"
       id="path36" />
    <path
       class="c"
       d="m 92.573,142.328 a 14.276,14.276 0 0 0 3.978,-3.2 2.3,2.3 0 0 0 0.594,-1.156 2.4,2.4 0 0 0 -0.916,-1.828 c -2.6,-2.576 -6.136,-3.964 -9.659,-4.947 -6.21,-1.733 -14.138,-3.228 -20.524,-1.769 a 19.033,19.033 0 0 0 -9.933,6.054 c -2.724,3.031 -5.744,6.9 -6.515,10.984 a 5.881,5.881 0 0 0 0.888,4.821 6.3,6.3 0 0 0 3.253,1.856 22.4,22.4 0 0 0 11.493,-0.335 c 4.019,-1.019 8.016,-2.406 11.936,-3.752 A 94.251,94.251 0 0 0 88.5,144.4 c 0.72,-0.355 2.7,-1.28 4.073,-2.072 z"
       id="path38" />
    <path
       class="b"
       d="m 93.785,144.4 a 15.947,15.947 0 0 0 4.854,-4.078 c 1.464,-1.983 0.922,-4.19 -0.712,-5.873 -2.839,-2.921 -6.877,-4.485 -10.719,-5.564 -7.618,-2.141 -16.827,-3.978 -24.452,-0.937 a 24.072,24.072 0 0 0 -9.4,7.053 c -2.651,3.113 -5.3,6.719 -6.068,10.829 a 8.947,8.947 0 0 0 0.7,6.032 8.17,8.17 0 0 0 5.117,3.6 c 4.41,1.254 9.108,0.635 13.464,-0.515 a 148.674,148.674 0 0 0 14.79,-4.853 89.892,89.892 0 0 0 12.43,-5.691 c 2.686,-1.524 0.27,-5.672 -2.423,-4.144 -6.1,3.463 -12.748,5.836 -19.386,8.036 a 58.831,58.831 0 0 1 -10.874,2.9 17.9,17.9 0 0 1 -5.37,-0.046 c -1.177,-0.212 -2.985,-0.511 -3.6,-1.707 -0.611,-1.178 -0.193,-2.725 0.189,-3.9 a 17.994,17.994 0 0 1 2.465,-4.642 26.013,26.013 0 0 1 6.376,-6.729 c 5.489,-3.726 12.432,-3.3 18.673,-2.108 a 44.6,44.6 0 0 1 10.513,2.993 18.989,18.989 0 0 1 2.473,1.381 c 0.278,0.185 0.548,0.377 0.808,0.587 0.212,0.171 0.916,1.057 1.147,1.075 0.231,0.018 0.061,-0.672 0.074,-0.67 a 14.256,14.256 0 0 0 -1.183,1.226 14.339,14.339 0 0 1 -2.309,1.6 c -2.662,1.569 -0.246,5.72 2.423,4.145 z"
       id="path40" />
    <path
       class="c"
       d="m 231.573,76.6 c 2.819,0.668 5.471,1.774 6.731,3.854 1.207,1.992 0.749,4.649 -0.514,6.605 a 18.809,18.809 0 0 1 -5.084,4.726 c -1.859,1.341 -3.828,2.725 -6.1,2.991 a 10.929,10.929 0 0 1 -6.786,-1.783 50.629,50.629 0 0 1 -13.692,-13.977 1.865,1.865 0 0 1 -0.427,-1.355 c 0.132,-0.589 0.768,-0.9 1.336,-1.1 5.576,-2.016 11.626,-1.944 17.42,-1.087 1.912,0.276 4.581,0.526 7.116,1.126 z"
       id="path42" />
    <path
       class="b"
       d="m 230.935,78.912 c 1.753,0.429 3.938,0.976 5.117,2.473 1.179,1.497 0.349,3.646 -0.686,4.961 a 22.673,22.673 0 0 1 -5.652,4.6 6.974,6.974 0 0 1 -5.8,1.238 15.41,15.41 0 0 1 -5.786,-3.417 51.225,51.225 0 0 1 -5.337,-5.058 c -0.873,-0.953 -1.72,-1.937 -2.512,-2.96 -0.725,-0.936 -1.3,-2.064 -2.08,-2.946 l -0.1,-0.158 q -0.446,-0.858 -0.424,1.23 c -0.218,-0.088 9.972,-2.2 0.426,-0.156 0.583,-0.125 1.158,-0.371 1.736,-0.524 a 25.4,25.4 0 0 1 3.8,-0.713 41.225,41.225 0 0 1 9.027,0.149 77.381,77.381 0 0 1 8.273,1.283 c 3.007,0.686 4.291,-3.941 1.276,-4.629 a 87.186,87.186 0 0 0 -10,-1.5 41.017,41.017 0 0 0 -10.111,0.093 29.153,29.153 0 0 0 -4.412,0.939 c -1.669,0.5 -3.58,1.116 -4.2,2.937 -0.586,1.713 0.314,3.144 1.259,4.517 0.92,1.336 1.91,2.629 2.943,3.88 a 51.614,51.614 0 0 0 6.71,6.741 c 2.418,2.017 4.953,4.04 8.047,4.873 a 11.545,11.545 0 0 0 9.323,-1.439 27.7,27.7 0 0 0 7.246,-5.9 c 2.244,-2.82 3.328,-6.9 1.362,-10.181 -1.719,-2.871 -5.067,-4.2 -8.166,-4.957 -3.003,-0.74 -4.283,3.888 -1.279,4.624 z"
       id="path44" />
    <path
       class="b"
       d="m 175.145,76.069 a 65.819,65.819 0 0 1 -2.659,-16.593 c 0,-0.124 0.038,-0.564 -0.023,-0.627 -0.2,-0.2 -0.666,0.579 -0.74,0.458 0.075,0.123 1.088,0.077 1.284,0.1 a 18.3,18.3 0 0 1 3.729,0.984 25.833,25.833 0 0 1 6.264,3.565 c 1.94,1.429 3.826,3.033 5.616,4.645 a 13.94,13.94 0 0 1 4.128,5.31 6.3,6.3 0 0 1 -1.1,6.016 10.677,10.677 0 0 1 -5.644,3.406 c -2.2,0.68 -5.062,1.938 -7.092,0.289 -2.226,-1.808 -2.973,-4.934 -3.758,-7.553 -0.886,-2.952 -5.52,-1.7 -4.629,1.276 0.972,3.241 2.017,6.629 4.419,9.122 2.593,2.693 5.9,3.16 9.425,2.319 3.255,-0.776 6.62,-1.843 9.23,-4.006 a 12.113,12.113 0 0 0 4.3,-8.255 c 0.519,-6.64 -5.629,-11.173 -10.155,-14.91 a 34.434,34.434 0 0 0 -8.205,-5.233 22.6,22.6 0 0 0 -4.448,-1.454 9.749,9.749 0 0 0 -4.724,-0.2 c -2.014,0.643 -2.7,2.587 -2.683,4.519 a 55.812,55.812 0 0 0 0.447,6.084 73.493,73.493 0 0 0 2.391,12.017 c 0.863,2.959 5.5,1.7 4.629,-1.276 z"
       id="path46" />
    <path
       class="b"
       d="m 161.9,53.326 c -5.356,-0.427 -11,-1.568 -16.25,0.129 a 12.58,12.58 0 0 0 -8.873,12.277 20.577,20.577 0 0 0 6.487,14.513 9.431,9.431 0 0 0 7.549,2.618 c 2.872,-0.345 5.212,-1.72 7.611,-3.233 a 67.286,67.286 0 0 0 12.365,-10 c 2.162,-2.209 -1.229,-5.606 -3.394,-3.394 a 55.692,55.692 0 0 1 -8.913,7.653 c -1.66,1.1 -3.34,2.255 -5.09,3.2 -1.524,0.828 -3.6,1.492 -5.268,0.734 -1.947,-0.885 -3.333,-2.874 -4.353,-4.673 a 16.974,16.974 0 0 1 -2.149,-6.333 c -0.425,-3.8 1.406,-7.427 5.12,-8.679 4.837,-1.629 10.213,-0.413 15.158,-0.019 a 2.42,2.42 0 0 0 2.4,-2.4 2.447,2.447 0 0 0 -2.4,-2.4 z"
       id="path48" />
    <path
       class="c"
       d="m 129.4,171.058 c -2.5,1.466 -5.179,2.5 -7.528,1.867 -2.249,-0.605 -3.754,-2.841 -4.194,-5.128 a 18.834,18.834 0 0 1 0.408,-6.93 c 0.417,-2.254 0.882,-4.615 2.344,-6.381 a 10.933,10.933 0 0 1 6.136,-3.4 50.629,50.629 0 0 1 19.557,0.637 1.871,1.871 0 0 1 1.245,0.684 1.851,1.851 0 0 1 -0.2,1.722 c -2.636,5.31 -7.058,9.44 -11.837,12.826 -1.585,1.118 -3.685,2.785 -5.931,4.103 z"
       id="path50" />
    <path
       class="b"
       d="m 128.188,168.985 c -1.544,0.888 -3.449,1.956 -5.306,1.712 a 3.657,3.657 0 0 1 -2.727,-2.855 c -0.59,-2.055 -0.136,-4.285 0.244,-6.337 0.34,-1.83 0.623,-3.965 1.843,-5.454 2.48,-3.028 7.179,-3.087 10.738,-3.2 a 51.858,51.858 0 0 1 6.792,0.225 q 1.577,0.156 3.134,0.431 0.867,0.153 1.728,0.339 c 0.284,0.061 0.567,0.126 0.85,0.193 q 0.627,0.148 0.186,0.066 l -0.618,-1.059 q 0.131,-0.426 0.04,-0.128 c -0.122,0.247 -0.249,0.491 -0.379,0.734 q -0.39,0.723 -0.825,1.422 a 25.439,25.439 0 0 1 -1.514,2.185 34.162,34.162 0 0 1 -4.239,4.441 66.255,66.255 0 0 1 -9.947,7.288 c -2.649,1.584 -0.238,5.735 2.423,4.145 a 83.157,83.157 0 0 0 7.74,-5.442 43.142,43.142 0 0 0 6.767,-6.248 34.325,34.325 0 0 0 2.695,-3.6 c 0.886,-1.377 2.034,-3.078 2.095,-4.761 0.142,-3.939 -5.145,-4.162 -7.932,-4.542 a 53.294,53.294 0 0 0 -10.123,-0.44 c -3.173,0.174 -6.454,0.452 -9.348,1.854 a 11.316,11.316 0 0 0 -5.891,6.713 29.013,29.013 0 0 0 -0.969,4.254 23.732,23.732 0 0 0 -0.535,5.5 c 0.194,3.335 1.718,6.859 4.9,8.351 3.554,1.667 7.433,0.184 10.6,-1.639 2.678,-1.542 0.263,-5.691 -2.422,-4.148 z"
       id="path52" />
    <path
       class="b"
       d="m 183.908,101.716 c 8.11,2.913 17.538,-0.387 22.426,-7.357 a 2.421,2.421 0 0 0 -0.861,-3.284 2.449,2.449 0 0 0 -3.283,0.861 14.987,14.987 0 0 1 -17.006,5.151 2.423,2.423 0 0 0 -2.952,1.677 2.449,2.449 0 0 0 1.676,2.952 z"
       id="path54" />
    <path
       class="b"
       d="m 155.641,118.283 a 235.19,235.19 0 0 0 15.665,-43.949 c 0.774,-2.992 -3.855,-4.269 -4.629,-1.276 -3.8,14.7 -8.545,29.122 -15.18,42.8 a 2.463,2.463 0 0 0 0.861,3.284 2.421,2.421 0 0 0 3.283,-0.861 z"
       id="path56" />
    <path
       class="b"
       d="m 133.231,108.168 a 111.637,111.637 0 0 1 -21.007,-8.643 c -2.719,-1.466 -5.146,2.677 -2.423,4.145 a 118.169,118.169 0 0 0 22.154,9.127 c 2.964,0.892 4.231,-3.74 1.276,-4.629 z"
       id="path58" />
    <path
       class="b"
       d="m 142.465,128.919 a 300.739,300.739 0 0 1 -42.726,-26.8 Q 94.045,97.887 88.5,93.467 a 2.476,2.476 0 0 0 -3.394,0 2.417,2.417 0 0 0 0,3.394 352.771,352.771 0 0 0 41.727,29.008 q 6.505,3.78 13.213,7.195 c 2.747,1.4 5.178,-2.74 2.423,-4.145 z"
       id="path60" />
    <path
       class="b"
       d="m 139.7,48.389 a 5.14,5.14 0 0 1 2.876,-5.249 20.072,20.072 0 0 1 4.587,-0.958 14.884,14.884 0 0 0 4.485,-1.587 c 2.7,-1.482 4.559,-3.913 6.777,-5.973 1.256,-1.167 4.112,-3.148 5.86,-1.748 a 2.473,2.473 0 0 0 3.394,0 2.417,2.417 0 0 0 0,-3.394 c -2.965,-2.374 -6.781,-2.164 -9.984,-0.3 -3.156,1.833 -5,5.226 -8.118,7.074 -3.192,1.893 -7.228,1.141 -10.324,3.276 a 9.922,9.922 0 0 0 -4.353,8.863 2.462,2.462 0 0 0 2.4,2.4 2.419,2.419 0 0 0 2.4,-2.4 z"
       id="path62" />
    <path
       class="b"
       d="m 58.667,166.01 c 9.152,1.315 18.578,-1.386 27.1,-4.573 a 2.468,2.468 0 0 0 1.677,-2.953 2.42,2.42 0 0 0 -2.953,-1.676 91.842,91.842 0 0 1 -13.283,3.856 31.622,31.622 0 0 1 -11.264,0.717 2.48,2.48 0 0 0 -2.952,1.677 2.417,2.417 0 0 0 1.676,2.952 z"
       id="path64" />
    <path
       class="b"
       d="m 124.474,26.912 0.148,0.117 a 2.085,2.085 0 0 0 2.828,0 c 1.014,-0.815 1.175,-3.038 1.584,-4.235 a 11.966,11.966 0 0 1 1.754,-3.613 8.451,8.451 0 0 1 3.188,-2.169 13.963,13.963 0 0 1 2.314,-0.78 c 0.861,-0.215 1.788,-0.211 2.4,-0.944 a 2.06,2.06 0 0 0 0,-2.829 c -0.951,-1.061 -3.082,-0.989 -4.4,-1.449 a 7.987,7.987 0 0 1 -3.144,-2.03 9.492,9.492 0 0 1 -2.167,-3.734 c -0.434,-1.4 -0.3,-3.6 -1.348,-4.653 A 2.02,2.02 0 0 0 125.214,0.28 c -1.406,1.052 -1.581,3.3 -2.185,4.894 a 13.329,13.329 0 0 1 -1.8,3.544 6.571,6.571 0 0 1 -2.957,2.039 19.185,19.185 0 0 1 -2.245,0.634 c -0.97,0.224 -2.21,0.227 -2.879,1.059 a 2.054,2.054 0 0 0 0,2.828 c 0.725,0.752 1.6,0.688 2.545,0.874 a 11.19,11.19 0 0 1 2.174,0.634 10.259,10.259 0 0 1 3.648,2.52 c 1.519,1.767 1.91,4.528 2.443,6.723 0.607,2.5 4.465,1.442 3.857,-1.063 -0.691,-2.847 -1.346,-6.014 -3.306,-8.3 a 14.841,14.841 0 0 0 -9.808,-4.66 l 1.414,0.585 -0.139,-0.144 v 2.828 l 0.127,-0.157 -0.883,0.514 c 3.191,-0.616 6.5,-1.442 8.738,-3.975 2.143,-2.421 3.294,-5.912 4.036,-9 l -0.919,1.195 0.156,-0.117 -2.424,-0.312 0.141,0.14 -0.586,-1.414 c 0.4,3.541 1.366,6.859 3.84,9.534 a 13.96,13.96 0 0 0 8.41,3.97 l -0.883,-0.515 0.135,0.151 v -2.83 l -0.126,0.151 0.882,-0.515 c -3.12,0.5 -6.753,1.916 -8.8,4.433 -1.93,2.371 -2.861,5.509 -3.566,8.437 l 0.514,-0.883 -0.146,0.118 h 2.828 l -0.147,-0.117 a 2.065,2.065 0 0 0 -2.829,0 2.015,2.015 0 0 0 0,2.829 z"
       id="path66" />
    <path
       class="d"
       d="m 114.354,40.318 c -5.75,0.259 -81.561,3.936 -102.563,5.12 0.53,17.387 1.6,39.129 2.241,52.134 21.02,-1.186 97.031,-4.638 102.8,-4.895 -0.38,-8.577 -2.325,-49.061 -2.478,-52.359 z"
       id="path68" />
    <path
       class="a"
       d="m 63.179,53.966 c -7.748,0.406 -12.75,7.487 -12.337,15.445 0.479,9.212 5.851,14.77 13.887,14.349 8.223,-0.43 12.8,-6.509 12.323,-15.721 C 76.636,60.027 70.9,53.562 63.179,53.966 Z"
       id="path70" />
    <path
       class="b"
       d="m 114.354,37.918 c -10.446,0.472 -20.889,1 -31.333,1.514 Q 57.61,40.676 32.2,41.961 c -6.8,0.348 -13.607,0.694 -20.408,1.077 a 2.437,2.437 0 0 0 -2.4,2.4 c 0.433,14.124 1.083,28.241 1.764,42.354 q 0.236,4.89 0.477,9.78 a 2.431,2.431 0 0 0 2.4,2.4 c 14.156,-0.8 28.322,-1.439 42.484,-2.109 q 23.874,-1.128 47.75,-2.216 6.282,-0.287 12.564,-0.57 a 2.433,2.433 0 0 0 2.4,-2.4 c -0.67,-15.154 -1.424,-30.3 -2.148,-45.454 q -0.165,-3.453 -0.328,-6.905 c -0.144,-3.076 -4.945,-3.093 -4.8,0 q 1,21.365 2.031,42.727 0.227,4.815 0.445,9.632 l 2.4,-2.4 q -15.792,0.7 -31.581,1.444 -25.416,1.174 -50.831,2.4 c -6.8,0.333 -13.592,0.664 -20.386,1.047 l 2.4,2.4 C 15.776,84.207 15.133,70.846 14.613,57.479 Q 14.381,51.458 14.192,45.434 l -2.4,2.4 c 14.07,-0.793 28.147,-1.474 42.222,-2.175 q 23.881,-1.189 47.767,-2.344 c 4.191,-0.2 8.382,-0.412 12.574,-0.6 3.075,-0.136 3.092,-4.937 -0.001,-4.797 z"
       id="path72" />
    <path
       class="b"
       d="M 63.179,51.566 A 15.769,15.769 0 0 0 48.812,64.614 c -1.288,6.665 0.561,14.55 6.173,18.77 4.932,3.709 12.706,3.758 17.8,0.3 5.782,-3.92 7.41,-11.3 6.428,-17.88 -1.187,-7.958 -7.723,-14.569 -16.032,-14.243 -3.078,0.121 -3.094,4.922 0,4.8 5.283,-0.207 9.437,3.386 10.89,8.349 1.347,4.6 0.738,10.6 -2.611,13.908 -2.969,2.929 -8.574,3.642 -12.3,1.73 C 54.827,78.126 53.086,72.872 53.226,68 53.388,62.309 57.162,56.764 63.179,56.37 a 2.456,2.456 0 0 0 2.4,-2.4 2.421,2.421 0 0 0 -2.4,-2.404 z"
       id="path74" />
    <path
       class="b"
       d="m 24.558,69 a 2.724,2.724 0 0 0 -2.654,2.88 2.605,2.605 0 0 0 2.9,2.688 2.585,2.585 0 0 0 2.651,-2.932 A 2.721,2.721 0 0 0 24.558,69 Z"
       id="path76" />
    <path
       class="b"
       d="M 32.151,68.66 A 2.724,2.724 0 0 0 29.5,71.541 2.6,2.6 0 0 0 32.4,74.228 2.584,2.584 0 0 0 35.048,71.3 2.721,2.721 0 0 0 32.151,68.66 Z"
       id="path78" />
    <path
       class="b"
       d="m 39.744,68.325 a 2.725,2.725 0 0 0 -2.654,2.881 2.778202,2.778202 0 1 0 5.551,-0.245 2.722,2.722 0 0 0 -2.897,-2.636 z"
       id="path80" />
    <path
       class="b"
       d="M 87.609,82.74 A 11.445,11.445 0 0 1 88.652,79 12.394,12.394 0 0 1 91.52,75.72 c 1.262,-1.113 0.676,-2.923 -0.486,-3.769 -4.189,-3.053 -1.523,-10.124 3.5,-10.151 a 5.552,5.552 0 0 1 5.2,3.543 c 0.819,2.137 0.448,5.048 -1.3,6.484 a 2.412,2.412 0 0 0 0.486,3.769 c 3.867,1.945 5.412,6.105 6.251,10.111 0.633,3.022 5.261,1.743 4.629,-1.276 -1.083,-5.168 -3.516,-10.494 -8.458,-12.979 l 0.486,3.769 c 2.507,-2.061 3.354,-5.729 3.012,-8.853 a 10.517,10.517 0 0 0 -5.132,-8.006 c -6.424,-3.7 -14.282,0.637 -15.4,7.735 a 10.066,10.066 0 0 0 4.306,10 l -0.486,-3.769 a 14.606,14.606 0 0 0 -5.145,9.143 2.478,2.478 0 0 0 1.676,2.952 2.418,2.418 0 0 0 2.952,-1.676 z"
       id="path82" />
    <path
       class="b"
       d="m 26.954,51.536 c -1.917,0.066 -3.834,0.083 -5.75,0.166 a 2.523,2.523 0 0 0 -1.7,0.7 2.4,2.4 0 0 0 1.7,4.1 c 1.916,-0.083 3.833,-0.1 5.75,-0.166 a 2.515,2.515 0 0 0 1.7,-0.7 2.4,2.4 0 0 0 -1.7,-4.1 z"
       id="path84" />
    <path
       class="e"
       d="m 211.976,113.959 c 7.218,0.875 13.96,4.125 18.315,10.09 7.757,10.623 5.82,27.76 -4.188,36.295 -10.767,9.182 -29.278,7.488 -38.106,-3.565 -8.828,-11.053 -7.11,-28.27 3.968,-36.923 5.464,-4.266 13.17,-6.726 20.011,-5.897 z"
       id="path86" />
    <path
       class="b"
       d="m 212.815,129.37 c -1.74,1.78 -3.237,3.786 -4.9,5.635 a 2.531,2.531 0 0 0 -0.7,1.7 2.443,2.443 0 0 0 0.7,1.7 2.4,2.4 0 0 0 3.394,0 c 1.664,-1.849 3.161,-3.855 4.9,-5.635 a 2.49,2.49 0 0 0 0.7,-1.7 2.443,2.443 0 0 0 -0.7,-1.7 2.414,2.414 0 0 0 -1.7,-0.7 2.475,2.475 0 0 0 -1.7,0.7 z"
       id="path88" />
    <path
       class="b"
       d="m 202.314,132.533 c 0.527,0.611 1.034,1.237 1.528,1.875 l -0.375,-0.486 c 1.07,1.389 2.06,2.833 3.073,4.263 a 2.581,2.581 0 0 0 1.434,1.1 2.449,2.449 0 0 0 1.85,-0.242 2.425,2.425 0 0 0 1.1,-1.434 2.365,2.365 0 0 0 -0.242,-1.849 c -1.6,-2.256 -3.169,-4.528 -4.977,-6.624 a 2.4,2.4 0 0 0 -4.1,1.7 2.659,2.659 0 0 0 0.7,1.7 z"
       id="path90" />
    <path
       class="b"
       d="m 203.724,141.288 c 2,-0.1 4,-0.077 6,-0.059 1.787,0.017 3.6,-0.007 5.377,0.159 a 2.407,2.407 0 0 0 2.4,-2.4 2.464,2.464 0 0 0 -2.4,-2.4 c -1.78,-0.166 -3.59,-0.142 -5.377,-0.159 -2,-0.018 -4,-0.044 -6,0.059 a 2.4,2.4 0 1 0 0,4.8 z"
       id="path92" />
    <path
       class="b"
       d="m 203.492,147.615 c 3.679,-0.021 7.355,-0.038 11.033,0.067 a 2.421,2.421 0 0 0 2.4,-2.4 2.447,2.447 0 0 0 -2.4,-2.4 c -3.678,-0.105 -7.354,-0.088 -11.033,-0.067 a 2.4,2.4 0 1 0 0,4.8 z"
       id="path94" />
    <path
       class="b"
       d="m 207.251,136.281 a 101.179,101.179 0 0 0 -0.981,13.984 2.421,2.421 0 0 0 2.4,2.4 2.446,2.446 0 0 0 2.4,-2.4 q 0.089,-3.252 0.268,-6.5 c 0.069,-1.223 0.148,-2.445 0.254,-3.666 0.046,-0.543 0.1,-1.086 0.16,-1.628 0.013,-0.12 0.109,-0.907 0.055,-0.472 -0.054,0.435 0,0.02 0.014,-0.077 0.019,-0.121 0.038,-0.243 0.058,-0.364 a 2.458,2.458 0 0 0 -1.679,-2.958 2.429,2.429 0 0 0 -2.952,1.676 z"
       id="path96" />
    <path
       class="b"
       d="m 211.976,116.359 a 24.573,24.573 0 0 1 14.384,6.763 22.408,22.408 0 0 1 6.078,12.83 c 1.245,9.291 -2.432,19.645 -10.712,24.585 -8.066,4.813 -18.892,4.345 -26.748,-0.675 -8.061,-5.151 -11.65,-15.381 -9.713,-24.594 a 23.147,23.147 0 0 1 8.129,-13.5 25.921,25.921 0 0 1 18.582,-5.407 2.414,2.414 0 0 0 2.4,-2.4 2.457,2.457 0 0 0 -2.4,-2.4 30.178,30.178 0 0 0 -19.618,5.067 27.688,27.688 0 0 0 -10.623,13.552 c -3.944,10.653 -1.222,23.794 7.486,31.332 a 30.936,30.936 0 0 0 31.748,4.767 c 10.746,-4.578 16.7,-15.9 16.481,-27.321 a 28.47,28.47 0 0 0 -6.413,-17.82 c -4.778,-5.7 -11.822,-8.656 -19.061,-9.577 a 2.413,2.413 0 0 0 -2.4,2.4 2.46,2.46 0 0 0 2.4,2.398 z"
       id="path98" />
  </g>
</svg>
